<svg width="30" height="15" viewBox="0 0 30 15" fill="none" xmlns="http://www.w3.org/2000/svg">
  <path d="M1.5 6.5C0.947715 6.5 0.5 6.94772 0.5 7.5C0.5 8.05228 0.947715 8.5 1.5 8.5V6.5ZM29.2071 8.20711C29.5976 7.81658 29.5976 7.18342 29.2071 6.79289L22.8431 0.428932C22.4526 0.0384078 21.8195 0.0384078 21.4289 0.428932C21.0384 0.819457 21.0384 1.45262 21.4289 1.84315L27.0858 7.5L21.4289 13.1569C21.0384 13.5474 21.0384 14.1805 21.4289 14.5711C21.8195 14.9616 22.4526 14.9616 22.8431 14.5711L29.2071 8.20711ZM1.5 8.5H28.5V6.5H1.5V8.5Z" fill="white" />
</svg>