<svg width="135" height="135" viewBox="0 0 135 135" fill="none" xmlns="http://www.w3.org/2000/svg">
  <rect width="135" height="135" rx="67.5" fill="#5661E1" />
  <path d="M88.1849 47.7563C84.3273 45.9005 80.2025 44.5518 75.8901 43.7838C75.3605 44.7683 74.7418 46.0925 74.3152 47.1459C69.731 46.437 65.189 46.437 60.6892 47.1459C60.2626 46.0925 59.6299 44.7683 59.0955 43.7838C54.7785 44.5518 50.649 45.9054 46.7913 47.7661C39.0103 59.8556 36.9011 71.6448 37.9557 83.2665C43.1164 87.2291 48.1178 89.6362 53.0348 91.2114C54.2488 89.4934 55.3315 87.6672 56.2643 85.7426C54.4878 85.0485 52.7863 84.192 51.1786 83.1977C51.6052 82.8728 52.0224 82.5331 52.4254 82.1836C62.2313 86.8993 72.8855 86.8993 82.5742 82.1836C82.982 82.5331 83.3992 82.8728 83.821 83.1977C82.2086 84.1969 80.5024 85.0534 78.726 85.7475C79.6587 87.6672 80.7368 89.4984 81.9555 91.2162C86.8772 89.6411 91.8832 87.234 97.0439 83.2665C98.2814 69.7939 94.93 58.113 88.1849 47.7563ZM57.6002 76.1193C54.6566 76.1193 52.2426 73.2937 52.2426 69.853C52.2426 66.4122 54.6051 63.5818 57.6002 63.5818C60.5955 63.5818 63.0094 66.4073 62.9578 69.853C62.9625 73.2937 60.5955 76.1193 57.6002 76.1193ZM77.3994 76.1193C74.4558 76.1193 72.0418 73.2937 72.0418 69.853C72.0418 66.4122 74.4042 63.5818 77.3994 63.5818C80.3946 63.5818 82.8086 66.4073 82.7571 69.853C82.7571 73.2937 80.3946 76.1193 77.3994 76.1193Z" fill="white" />
</svg>
  