<svg width="48" height="48" viewBox="0 0 48 48" fill="none" xmlns="http://www.w3.org/2000/svg">
  <rect width="48" height="48" rx="24" fill="url(#paint0_linear_7_119)" fill-opacity="0.38" />
  <path d="M31.4044 17.5115C30.0234 16.8654 28.5469 16.3958 27.0031 16.1284C26.8136 16.4712 26.5921 16.9322 26.4393 17.299C24.7983 17.0522 23.1724 17.0522 21.5616 17.299C21.4089 16.9322 21.1824 16.4712 20.9911 16.1284C19.4457 16.3958 17.9675 16.8671 16.5865 17.5149C13.8011 21.724 13.0461 25.8285 13.4236 29.8747C15.271 31.2543 17.0614 32.0924 18.8215 32.6408C19.2561 32.0427 19.6437 31.4069 19.9776 30.7368C19.3417 30.4951 18.7326 30.1969 18.1571 29.8508C18.3098 29.7376 18.4591 29.6194 18.6034 29.4977C22.1136 31.1395 25.9276 31.1395 29.3959 29.4977C29.5419 29.6194 29.6912 29.7376 29.8422 29.8508C29.265 30.1986 28.6542 30.4968 28.0183 30.7385C28.3522 31.4069 28.7381 32.0444 29.1744 32.6425C30.9362 32.0941 32.7283 31.2561 34.5757 29.8747C35.0187 25.1841 33.8189 21.1173 31.4044 17.5115ZM20.4558 27.3863C19.4021 27.3863 18.5379 26.4026 18.5379 25.2047C18.5379 24.0067 19.3836 23.0213 20.4558 23.0213C21.528 23.0213 22.3922 24.005 22.3737 25.2047C22.3754 26.4026 21.528 27.3863 20.4558 27.3863ZM27.5434 27.3863C26.4897 27.3863 25.6256 26.4026 25.6256 25.2047C25.6256 24.0067 26.4712 23.0213 27.5434 23.0213C28.6156 23.0213 29.4798 24.005 29.4613 25.2047C29.4613 26.4026 28.6156 27.3863 27.5434 27.3863Z" fill="white" />
  <rect x="0.5" y="0.5" width="47" height="47" rx="23.5" stroke="url(#paint1_linear_7_119)" stroke-opacity="0.9" />
  <defs>
    <linearGradient id="paint0_linear_7_119" x1="6.5" y1="5" x2="40" y2="46" gradientUnits="userSpaceOnUse">
      <stop stop-color="#3C7BB6" />
      <stop offset="1" stop-color="#3C7BB6" stop-opacity="0" />
    </linearGradient>
    <linearGradient id="paint1_linear_7_119" x1="16" y1="1" x2="42" y2="47" gradientUnits="userSpaceOnUse">
      <stop stop-color="white" stop-opacity="0.19" />
      <stop offset="1" stop-color="white" stop-opacity="0" />
    </linearGradient>
  </defs>
</svg>
  