<svg width="148" height="19" viewBox="0 0 148 19" fill="none" xmlns="http://www.w3.org/2000/svg">
<path d="M0.785469 18H13.5535V14.232H5.53747V1.2H0.785469V18ZM23.6481 18.336C29.0241 18.336 32.9841 14.64 32.9841 9.6C32.9841 4.56 29.0241 0.863999 23.6481 0.863999C18.2721 0.863999 14.3121 4.56 14.3121 9.6C14.3121 14.64 18.2721 18.336 23.6481 18.336ZM23.6481 14.4C21.1041 14.4 19.1121 12.504 19.1121 9.6C19.1121 6.696 21.1041 4.8 23.6481 4.8C26.1921 4.8 28.1841 6.696 28.1841 9.6C28.1841 12.504 26.1921 14.4 23.6481 14.4ZM46.729 13.848C45.889 14.232 45.049 14.4 44.161 14.4C41.329 14.4 39.409 12.432 39.409 9.6C39.409 6.696 41.329 4.8 44.209 4.8C45.817 4.8 47.137 5.4 48.289 6.672L51.313 3.936C49.657 1.944 47.113 0.863999 43.969 0.863999C38.521 0.863999 34.609 4.488 34.609 9.6C34.609 14.712 38.521 18.336 43.873 18.336C46.321 18.336 48.985 17.592 50.929 16.2V9.24H46.729V13.848ZM62.4137 18.336C67.7897 18.336 71.7497 14.64 71.7497 9.6C71.7497 4.56 67.7897 0.863999 62.4137 0.863999C57.0377 0.863999 53.0777 4.56 53.0777 9.6C53.0777 14.64 57.0377 18.336 62.4137 18.336ZM62.4137 14.4C59.8697 14.4 57.8777 12.504 57.8777 9.6C57.8777 6.696 59.8697 4.8 62.4137 4.8C64.9577 4.8 66.9497 6.696 66.9497 9.6C66.9497 12.504 64.9577 14.4 62.4137 14.4ZM92.455 1.2V7.512H85.975V1.2H81.223V18H85.975V11.448H92.455V18H97.207V1.2H92.455ZM105.263 14.328V11.256H112.727V7.704H105.263V4.872H113.735V1.2H100.559V18H114.047V14.328H105.263ZM127.076 18H132.164L128.54 12.72C130.628 11.712 131.828 9.888 131.828 7.416C131.828 3.576 128.948 1.2 124.364 1.2H116.684V18H121.436V13.536H124.028L127.076 18ZM127.028 7.416C127.028 8.952 126.044 9.864 124.076 9.864H121.436V4.944H124.076C126.044 4.944 127.028 5.856 127.028 7.416ZM139.154 14.328V11.256H146.618V7.704H139.154V4.872H147.626V1.2H134.45V18H147.938V14.328H139.154Z" fill="url(#paint0_linear_7_114)"/>
<defs>
<linearGradient id="paint0_linear_7_114" x1="6" y1="-9.5" x2="143.5" y2="24" gradientUnits="userSpaceOnUse">
<stop stop-color="#8BE3FF"/>
<stop offset="0.5625" stop-color="#F68BFF"/>
<stop offset="1" stop-color="#8B97FF"/>
</linearGradient>
</defs>
</svg>
