<svg width="48" height="48" viewBox="0 0 48 48" fill="none" xmlns="http://www.w3.org/2000/svg">
  <rect width="48" height="48" rx="24" fill="url(#paint0_linear_7_129)" fill-opacity="0.38" />
  <path d="M20.0426 31.9998C28.0933 31.9998 32.4959 25.3319 32.4959 19.5497C32.4959 19.3603 32.4921 19.1718 32.4836 18.9841C33.3382 18.3664 34.081 17.5956 34.6668 16.7182C33.8826 17.0667 33.0386 17.3013 32.1533 17.4071C33.057 16.8654 33.7507 16.0084 34.078 14.9868C33.2324 15.4881 32.2959 15.8523 31.2987 16.049C30.5 15.1985 29.3629 14.6665 28.1038 14.6665C25.6868 14.6665 23.7267 16.6261 23.7267 19.0417C23.7267 19.385 23.7651 19.719 23.8402 20.0394C20.2025 19.8564 16.9768 18.1152 14.818 15.4676C14.4422 16.1142 14.2254 16.8654 14.2254 17.6669C14.2254 19.185 14.9981 20.5252 16.1732 21.3093C15.4551 21.2871 14.7805 21.09 14.1909 20.762C14.1903 20.7803 14.1903 20.7982 14.1903 20.8179C14.1903 22.937 15.699 24.7063 17.7017 25.1073C17.3339 25.2075 16.9469 25.2613 16.5476 25.2613C16.266 25.2613 15.9916 25.2336 15.7249 25.1824C16.2822 26.921 17.898 28.1862 19.8137 28.2215C18.3156 29.3954 16.4285 30.0946 14.3775 30.0946C14.0247 30.0946 13.6761 30.0745 13.3335 30.034C15.2706 31.2753 17.5707 31.9996 20.0428 31.9996" fill="white" />
  <rect x="0.5" y="0.5" width="47" height="47" rx="23.5" stroke="url(#paint1_linear_7_129)" stroke-opacity="0.9" />
  <defs>
    <linearGradient id="paint0_linear_7_129" x1="6.5" y1="5" x2="40" y2="46" gradientUnits="userSpaceOnUse">
      <stop stop-color="#3C7BB6" />
      <stop offset="1" stop-color="#3C7BB6" stop-opacity="0" />
    </linearGradient>
    <linearGradient id="paint1_linear_7_129" x1="16" y1="1" x2="42" y2="47" gradientUnits="userSpaceOnUse">
      <stop stop-color="white" stop-opacity="0.19" />
      <stop offset="1" stop-color="white" stop-opacity="0" />
    </linearGradient>
  </defs>
</svg>
  